<svg width="966.25045" height="966" xmlns="http://www.w3.org/2000/svg">

 <g>
  <title>background</title>
  <rect fill="none" id="canvas_background" height="402" width="582" y="-1" x="-1"/>
 </g>
 <g>
  <title>Layer 1</title>
  <path id="svg_1" fill-rule="nonzero" fill="#eeb717" d="m80.998796,840.088825l405.20312,0l0,-31.17579l-405.20312,0c-25.82032,0 -46.75391,-20.93359 -46.75391,-46.7539l0,-685.72656c0,-25.82813 20.93359,-46.75391 46.75391,-46.75391l685.72656,0c25.83203,0 46.7539,20.92578 46.7539,46.75391l0,358.44531l31.17579,0l0,-358.44531c-0.05079,-43.01563 -34.91016,-77.8711 -77.92969,-77.92188l-685.72656,0c-43.00782,0.05078 -77.86719,34.90625 -77.92188,77.92188l0,685.72656c0.05469,43.01562 34.91406,77.87109 77.92188,77.92969zm0,0"/>
  <path id="svg_2" fill-rule="nonzero" fill="#eeb717" d="m60.729445,62.46875l31.16406,0l0,31.16406l-31.16406,0l0,-31.16406zm0,0"/>
  <path id="svg_3" fill-rule="nonzero" fill="#eeb717" d="m124.67578,62.46875l31.17578,0l0,31.16406l-31.17578,0l0,-31.16406zm0,0"/>
  <path id="svg_4" fill-rule="nonzero" fill="#eeb717" d="m187.01563,62.46875l31.17187,0l0,31.16406l-31.17187,0l0,-31.16406zm0,0"/>
  <path id="svg_5" fill-rule="nonzero" fill="#eeb717" d="m62.34375,124.80078l716.89063,0l0,31.17578l-716.89063,0l0,-31.17578zm0,0"/>
  <path id="svg_6" fill-rule="nonzero" fill="#eeb717" d="m222.75391,191.70703l-39.58594,39.58594c-33.46094,-22.15234 -78.26953,-15.35547 -103.66406,15.72266c-25.39063,31.07421 -23.11328,76.33984 5.26172,104.71093c28.37109,28.38282 73.64062,30.66016 104.71875,5.26563c31.07421,-25.39063 37.875,-70.20703 15.71875,-103.66016l39.58203,-39.58594l-22.03125,-22.03906zm-82.4961,151.27735c-25.8164,0 -46.75,-20.92969 -46.75,-46.75c0,-25.82422 20.9336,-46.75 46.75,-46.75c6.95313,0.02343 13.79297,1.61718 20.03125,4.66796l-31.04297,31.04688l22.03125,22.03906l31.06641,-31.02734c3.05078,6.23437 4.64844,13.07422 4.67188,20.02344c0,25.82031 -20.92579,46.75 -46.75782,46.75zm0,0"/>
  <path id="svg_7" fill-rule="nonzero" fill="#eeb717" d="m264.94141,251.098685l264.93359,0l0,31.16406l-264.93359,0l0,-31.16406zm0,0"/>
  <path id="svg_8" fill-rule="nonzero" fill="#eeb717" d="m264.94141,311.82031l109.08984,0l0,31.16407l-109.08984,0l0,-31.16407zm0,0"/>
  <path id="svg_9" fill-rule="nonzero" fill="#eeb717" d="m405.20313,311.82031l218.17968,0l0,31.16407l-218.17968,0l0,-31.16407zm0,0"/>
  <path id="svg_10" fill-rule="nonzero" fill="#eeb717" d="m561.04688,249.48438l155.84765,0l0,31.16406l-155.84765,0l0,-31.16406zm0,0"/>
  <path id="svg_11" fill-rule="nonzero" fill="#eeb717" d="m222.75391,378.72266l-39.58594,39.58593c-33.46094,-22.15234 -78.26953,-15.35546 -103.66406,15.72266c-25.39063,31.07813 -23.11328,76.33984 5.26172,104.71875c28.37109,28.375 73.64062,30.65234 104.71875,5.25781c31.07421,-25.39453 37.875,-70.19531 15.71875,-103.66015l39.58203,-39.58594l-22.03125,-22.03906zm-82.4961,151.28125c-25.8164,0 -46.75,-20.9336 -46.75,-46.75391c0,-25.82422 20.9336,-46.75781 46.75,-46.75781c6.95313,0.02734 13.79297,1.625 20.03125,4.67578l-31.04297,31.05469l22.03125,22.03125l31.06641,-31.03125c3.05078,6.23828 4.64844,13.07812 4.67188,20.02734c0,25.82031 -20.92579,46.75391 -46.75782,46.75391zm0,0"/>
  <path id="svg_12" fill-rule="nonzero" fill="#eeb717" d="m264.94141,436.49219l264.93359,0l0,31.17187l-264.93359,0l0,-31.17187zm0,0"/>
  <path id="svg_13" fill-rule="nonzero" fill="#eeb717" d="m264.94141,498.83594l109.08984,0l0,31.16797l-109.08984,0l0,-31.16797zm0,0"/>
  <path id="svg_14" fill-rule="nonzero" fill="#eeb717" d="m403.588825,498.83594l124.67187,0l0,31.16797l-124.67187,0l0,-31.16797zm0,0"/>
  <path id="svg_15" fill-rule="nonzero" fill="#eeb717" d="m561.04688,434.877885l62.33593,0l0,31.17187l-62.33593,0l0,-31.17187zm0,0"/>
  <path id="svg_16" fill-rule="nonzero" fill="#eeb717" d="m222.75391,565.73828l-39.58594,39.58594c-33.46094,-22.15234 -78.26953,-15.35547 -103.66406,15.72266c-25.39063,31.07812 -23.11328,76.33984 5.26172,104.71875c28.37109,28.3789 73.64062,30.64843 104.71875,5.25781c31.07421,-25.39453 37.875,-70.19922 15.71875,-103.66406l39.58203,-39.58204l-22.03125,-22.03906zm-82.4961,151.28125c-25.8164,0 -46.75,-20.93359 -46.75,-46.7539c0,-25.82422 20.9336,-46.75391 46.75,-46.75391c6.95313,0.02344 13.79297,1.61719 20.03125,4.67187l-31.04297,31.05469l22.03125,22.03125l31.06641,-31.03125c3.05078,6.23828 4.64844,13.08203 4.67188,20.02735c0,25.82031 -20.92579,46.7539 -46.75782,46.7539zm0,0"/>
  <path id="svg_17" fill-rule="nonzero" fill="#eeb717" d="m264.94141,623.51172l202.59765,0l0,31.17578l-202.59765,0l0,-31.17578zm0,0"/>
  <path id="svg_18" fill-rule="nonzero" fill="#eeb717" d="m264.94141,685.85156l109.08984,0l0,31.16797l-109.08984,0l0,-31.16797zm0,0"/>
  <path id="svg_19" fill-rule="nonzero" fill="#eeb717" d="m405.20313,685.85156l62.33593,0l0,31.16797l-62.33593,0l0,-31.16797zm0,0"/>
  <path id="svg_20" fill-rule="nonzero" fill="#eeb717" d="m732.48438,935.21094c129.11328,0 233.76562,-104.67188 233.76562,-233.77344c0,-129.11328 -104.65234,-233.77344 -233.76562,-233.77344c-129.11329,0 -233.77344,104.66016 -233.77344,233.77344c0.15234,129.04297 104.72265,233.61719 233.77344,233.77344zm0,-436.375c111.88671,0 202.60156,90.70703 202.60156,202.60156c0,111.89453 -90.71485,202.59766 -202.60156,202.59766c-111.89844,0 -202.60938,-90.70313 -202.60938,-202.59766c0.13281,-111.83984 90.76172,-202.47656 202.60938,-202.60156zm0,0"/>
  <path id="svg_21" fill-rule="nonzero" fill="#eeb717" d="m637.41797,708.436475l-27.89844,13.92969l31.17188,62.33984c2.23437,4.48438 6.5,7.6211 11.44922,8.42188c0.80468,0.125 1.60937,0.1914 2.41796,0.20312c4.12891,0 8.09375,-1.64453 11.02344,-4.5664l187.00781,-187.01563l-22.03125,-22.03906l-171.73437,171.72656l-21.40625,-43zm0,0"/>
  <line stroke-linecap="null" stroke-linejoin="null" id="svg_22" y2="442.134689" x2="1176.200493" y1="443.673147" x1="1176.200493" stroke-opacity="null" stroke-width="null" stroke="null" fill="none"/>
 </g>
</svg>